<?xml version="1.0" encoding="utf-8"?>
<!-- Generator: Adobe Illustrator 27.0.1, SVG Export Plug-In . SVG Version: 6.00 Build 0)  -->
<svg version="1.1" id="Calque_1" xmlns="http://www.w3.org/2000/svg" xmlns:xlink="http://www.w3.org/1999/xlink" x="0px" y="0px"
	 viewBox="0 0 325 148.1" style="enable-background:new 0 0 325 148.1;" xml:space="preserve">
<style type="text/css">
	.st0{fill:#EB6608;}
	.st1{fill:#FFFFFF;}
</style>
<g>
	<g>
		<g>
			<g>
				<path class="st0" d="M262.6,115.3h-14c-2.3,0-3.7-2.1-2.6-3.7l19.9-28.2c0,0,0,0,0,0l-19.9-28.1c-1.2-1.6,0.3-3.7,2.6-3.7h12.3
					c1.1,0,2,0.5,2.6,1.2l21.6,30.6L262.6,115.3"/>
				<path class="st0" d="M302.7,96.6L280.4,65l21.3-30.2c0.6-0.8,1.7-1.4,2.9-1.4h11.3c2.5,0,4.1,2.3,2.9,4.1L299.4,65l19.4,27.5
					c1.3,1.8-0.3,4.1-2.9,4.1H302.7"/>
			</g>
		</g>
	</g>
</g>
<g>
	<path class="st1" d="M156.2,115.4H149c-1.9,0-3.4-1.5-3.4-3.4v-8.4h-0.3c-1.7,4.1-4.5,7.3-8.4,9.8c-3.9,2.4-8.5,3.6-13.9,3.6
		c-3.7,0-7.5-0.7-11.2-2c-3.7-1.4-7.1-3.4-10-6.2c-2.9-2.8-5.3-6.2-7.1-10.3c-1.8-4.1-2.7-9-2.7-14.6c0-4.8,0.8-9.2,2.5-13.3
		c1.7-4.1,4-7.6,7-10.5c3-2.9,6.6-5.2,10.7-6.9c4.1-1.7,8.7-2.5,13.7-2.5c4.9,0,9.5,0.8,13.6,2.4c4.2,1.6,7.7,3.9,10.6,6.8
		c2.9,2.9,5.2,6.5,6.9,10.6c1.7,4.1,2.5,8.7,2.5,13.8v27.6C159.6,113.9,158.1,115.4,156.2,115.4z M125.9,102.9
		c5.6,0,10.1-1.8,13.4-5.3c3.4-3.5,5-8.1,5-13.7c0-5.6-1.7-10.2-5-13.7c-3.4-3.5-7.8-5.3-13.4-5.3c-5.6,0-10.1,1.8-13.5,5.3
		c-3.4,3.5-5.1,8.1-5.1,13.7c0,5.6,1.7,10.2,5.1,13.7C115.8,101.2,120.3,102.9,125.9,102.9z"/>
	<path class="st1" d="M170.3,112.8V36.2c0-1.5,1.3-2.7,2.9-2.7h9.3c1.6,0,2.9,1.2,2.9,2.7v76.6c0,1.5-1.3,2.7-2.9,2.7h-9.3
		C171.6,115.4,170.3,114.2,170.3,112.8z"/>
	<path class="st1" d="M196.2,112.5v-76c0-1.6,1.5-3,3.3-3h8.6c1.8,0,3.3,1.3,3.3,3v76c0,1.6-1.5,3-3.3,3h-8.6
		C197.6,115.4,196.2,114.1,196.2,112.5z"/>
</g>
<path class="st1" d="M221.1,112V55c0-1.9,1.5-3.4,3.4-3.4h8.3c1.9,0,3.5,1.5,3.5,3.5v57c0,1.9-1.5,3.4-3.4,3.4h-8.5
	C222.6,115.4,221.1,113.9,221.1,112z"/>
<path class="st1" d="M145.7,112V54.9c0-1.9,1.4-3.4,3.1-3.4h7.7c1.7,0,3.1,1.5,3.1,3.4V112c0,1.9-1.4,3.4-3.1,3.4h-7.7
	C147.1,115.4,145.7,113.9,145.7,112z"/>
<path class="st1" d="M22.4,113.8L5.9,53.3l-0.1-0.5c0-0.8,0.4-1.2,1.3-1.2h13.8c0.8,0,1.4,0.4,1.6,1.2L30.7,90
	c0.1,0.2,0.2,0.4,0.3,0.4c0.2,0,0.3-0.1,0.3-0.4L40,52.8c0.2-0.8,0.8-1.2,1.6-1.2h12c0.8,0,1.4,0.4,1.6,1.2l9,37.3
	c0.1,0.2,0.2,0.4,0.3,0.4c0.2,0,0.3-0.1,0.3-0.4l8.9-37.3c0.2-0.8,0.8-1.2,1.6-1.2l13.7,0.2c0.5,0,0.8,0.1,1,0.4
	c0.2,0.3,0.2,0.7,0.2,1.2l-16.7,60.4c-0.2,0.8-0.7,1.2-1.5,1.2H58.3c-0.8,0-1.4-0.4-1.6-1.2l-8.8-33c-0.1-0.2-0.2-0.4-0.3-0.4
	c-0.2,0-0.3,0.1-0.3,0.4l-7.8,33c-0.2,0.8-0.8,1.2-1.6,1.2H24C23.1,115,22.6,114.6,22.4,113.8z"/>
<path class="st0" d="M232.2,48.6h-6.8c-2.3,0-4.1-1.9-4.1-4.1v-6.8c0-2.3,1.9-4.1,4.1-4.1h6.8c2.3,0,4.1,1.9,4.1,4.1v6.8
	C236.3,46.7,234.5,48.6,232.2,48.6z"/>
</svg>
