<svg xmlns="http://www.w3.org/2000/svg" xmlns:xlink="http://www.w3.org/1999/xlink" width="169.012" height="35.389" viewBox="0 0 169.012 35.389">
  <defs>
    <linearGradient id="linear-gradient" y1="0.088" x2="1" y2="1" gradientUnits="objectBoundingBox">
      <stop offset="0" stop-color="#f41f4e"/>
      <stop offset="1" stop-color="#7a1027"/>
    </linearGradient>
  </defs>
  <g id="Group_3225" data-name="Group 3225" transform="translate(-186.021 -751)">
    <g id="Group_16" data-name="Group 16" transform="translate(186.021 751)">
      <g id="Group_5" data-name="Group 5" transform="translate(39.318 9.497)">
        <g id="Group_1" data-name="Group 1" transform="translate(0 0)">
          <path id="Path_1833" data-name="Path 1833" d="M128.8,44.259h-3.6l.086-10.806h-.063l-3.97,10.806h-2.589L114.8,33.453h-.063l.086,10.806H111.35V28.984h5.242l3.476,9.8h.086l3.321-9.8H128.8V44.259Z" transform="translate(-111.35 -28.572)" fill="#010101"/>
          <path id="Path_1834" data-name="Path 1834" d="M185.146,35.784a7.744,7.744,0,0,1-2.352,5.856,9.023,9.023,0,0,1-11.931,0,7.741,7.741,0,0,1-2.352-5.856,7.58,7.58,0,0,1,2.34-5.8,9.278,9.278,0,0,1,11.951,0,7.556,7.556,0,0,1,2.34,5.8Zm-3.947,0a4.7,4.7,0,0,0-1.232-3.344,4.411,4.411,0,0,0-6.288,0,4.734,4.734,0,0,0-1.218,3.344,4.915,4.915,0,0,0,1.218,3.407,4.366,4.366,0,0,0,6.288,0,4.844,4.844,0,0,0,1.232-3.407" transform="translate(-148.625 -27.799)" fill="#010101"/>
          <path id="Path_1835" data-name="Path 1835" d="M235.832,44.26h-4.315l-3.3-6.064h-1.25V44.26h-3.625V28.984h5.824a9.339,9.339,0,0,1,2.157.237,6.579,6.579,0,0,1,1.854.754,3.586,3.586,0,0,1,1.349,1.445,4.655,4.655,0,0,1,.486,2.18,4.089,4.089,0,0,1-.841,2.589,4.5,4.5,0,0,1-2.33,1.531l3.992,6.537Zm-4.465-10.594q0-1.7-2.458-1.7h-1.963v3.562h1.748q2.677,0,2.676-1.854Z" transform="translate(-184.382 -28.572)" fill="#010101"/>
          <path id="Path_1837" data-name="Path 1837" d="M276.034,33.686a4.417,4.417,0,0,1-.873,2.8,4.553,4.553,0,0,1-2.18,1.563,9.391,9.391,0,0,1-3.011.442h-1.835v5.758h-3.687V28.984h5.609A7.585,7.585,0,0,1,274.4,30.1a4.038,4.038,0,0,1,1.63,3.593Zm-3.688.022q0-1.745-2.589-1.749H268.14v3.6h1.553q2.656,0,2.654-1.854" transform="translate(-211.188 -28.572)" fill="#010101"/>
          <path id="Path_1838" data-name="Path 1838" d="M317.473,44.259h-3.689V37.873H307.83v6.386h-3.689V28.984h3.689v5.782h5.954V28.984h3.689Z" transform="translate(-237.073 -28.572)" fill="#010101"/>
          <path id="Path_1839" data-name="Path 1839" d="M355.225,44.259h-3.711V28.984h3.711Z" transform="translate(-267.966 -28.572)" fill="#010101"/>
          <path id="Path_1841" data-name="Path 1841" d="M379.306,29.744l-2.352,2.48a3.369,3.369,0,0,0-1.218-.948,3.481,3.481,0,0,0-1.5-.367,3.031,3.031,0,0,0-1.5.355,1.239,1.239,0,0,0-.636,1.176,1.29,1.29,0,0,0,.15.636,1.27,1.27,0,0,0,.509.474,5.434,5.434,0,0,0,.7.345q.345.139.991.336c.559.19,1,.339,1.317.454a9.925,9.925,0,0,1,1.218.572,4.57,4.57,0,0,1,1.154.831,4.051,4.051,0,0,1,.732,1.154,3.853,3.853,0,0,1,.323,1.585,4.5,4.5,0,0,1-1.694,3.788,6.6,6.6,0,0,1-4.152,1.3,8.948,8.948,0,0,1-3.191-.582,6.72,6.72,0,0,1-2.527-1.621l2.416-2.458a4.229,4.229,0,0,0,1.477,1.163,4.1,4.1,0,0,0,1.822.454,2.713,2.713,0,0,0,1.521-.4,1.41,1.41,0,0,0,.6-1.264,1.157,1.157,0,0,0-.163-.614,2.264,2.264,0,0,0-.355-.454,2.579,2.579,0,0,0-.69-.4c-.332-.144-.61-.256-.841-.336s-.6-.2-1.122-.377a11.027,11.027,0,0,1-1.445-.582,6.446,6.446,0,0,1-1.208-.8,3.233,3.233,0,0,1-.927-1.25,4.441,4.441,0,0,1-.323-1.749,4.487,4.487,0,0,1,.518-2.167,3.99,3.99,0,0,1,1.381-1.509,6.874,6.874,0,0,1,1.889-.831,8.08,8.08,0,0,1,2.126-.281,7.89,7.89,0,0,1,2.686.486,6.619,6.619,0,0,1,2.317,1.39Z" transform="translate(-278.476 -27.842)" fill="#010101"/>
          <path id="Path_1842" data-name="Path 1842" d="M418.547,44.259H407.891V28.984H418.16v3.128h-6.708v2.87h6.341v2.957h-6.341v3.172h7.1v3.148Z" transform="translate(-304.731 -28.572)" fill="#010101"/>
          <path id="Path_1843" data-name="Path 1843" d="M457.637,41.379A7.437,7.437,0,0,1,451.7,43.9a8.126,8.126,0,0,1-5.888-2.253,7.729,7.729,0,0,1-2.33-5.814,7.634,7.634,0,0,1,2.362-5.814,8.333,8.333,0,0,1,5.923-2.212,9.009,9.009,0,0,1,3.225.595,6.136,6.136,0,0,1,2.49,1.649l-2.5,2.5a3.1,3.1,0,0,0-1.327-1.045,4.433,4.433,0,0,0-1.758-.355,4.139,4.139,0,0,0-3.162,1.327,4.718,4.718,0,0,0-1.24,3.353,4.823,4.823,0,0,0,1.208,3.375,4.068,4.068,0,0,0,3.128,1.3,3.712,3.712,0,0,0,3.235-1.553Z" transform="translate(-327.944 -27.807)" fill="#010101"/>
        </g>
      </g>
      <g id="Group_3" data-name="Group 3">
        <path id="Path_1844" data-name="Path 1844" d="M142.594,531.939v-4.133h15.322l4.133,4.133Z" transform="translate(-135.153 -500.265)" fill="#f41f4e"/>
        <path id="Path_1845" data-name="Path 1845" d="M7.644,9.139l15.092,3.116V27.787L26.548,31.6l.095.095h-19ZM.678,27.538V3.693L25.89,8.943l.021,20.886-2.4-2.4V11.652L3.082,7.448V32.342ZM0,2.852V27.779l3.829,7.752v.019H30.439l0,0v0h0l0,0V4.473L7.618.174Z" transform="translate(0 -0.165)" fill="url(#linear-gradient)"/>
        <path id="Path_1846" data-name="Path 1846" d="M8.8,0,1.233,2.637,27.846,8.159l3.767-3.851Z" transform="translate(-1.169)" fill="#f41f4e"/>
      </g>
    </g>
  </g>
</svg>
